<svg width="1115" height="372" viewBox="0 0 1115 372" fill="none" xmlns="http://www.w3.org/2000/svg">
<path d="M418.08 75.2583C417.604 70.4624 415.563 66.7367 411.956 64.0811C408.35 61.4256 403.455 60.0978 397.272 60.0978C393.07 60.0978 389.523 60.6923 386.629 61.8814C383.736 63.0308 381.517 64.636 379.971 66.6971C378.465 68.7581 377.712 71.0966 377.712 73.7125C377.632 75.8924 378.088 77.7949 379.079 79.42C380.109 81.045 381.517 82.4521 383.3 83.6411C385.084 84.7905 387.145 85.8012 389.483 86.6732C391.822 87.5056 394.319 88.219 396.974 88.8135L407.914 91.4294C413.225 92.6185 418.1 94.2039 422.539 96.1857C426.978 98.1674 430.823 100.605 434.073 103.498C437.323 106.392 439.84 109.8 441.623 113.724C443.447 117.648 444.378 122.147 444.418 127.22C444.378 134.671 442.476 141.132 438.71 146.602C434.984 152.032 429.594 156.253 422.539 159.265C415.524 162.238 407.061 163.724 397.153 163.724C387.323 163.724 378.762 162.218 371.469 159.206C364.216 156.193 358.548 151.734 354.465 145.829C350.423 139.884 348.302 132.531 348.104 123.772H373.015C373.292 127.854 374.461 131.263 376.523 133.998C378.623 136.693 381.417 138.734 384.905 140.121C388.433 141.469 392.416 142.143 396.855 142.143C401.215 142.143 405 141.509 408.211 140.24C411.461 138.972 413.978 137.208 415.761 134.949C417.545 132.69 418.437 130.094 418.437 127.161C418.437 124.426 417.624 122.127 415.999 120.264C414.414 118.401 412.075 116.816 408.984 115.508C405.932 114.2 402.186 113.011 397.747 111.941L384.489 108.611C374.224 106.114 366.118 102.21 360.173 96.8991C354.228 91.588 351.275 84.4338 351.314 75.4366C351.275 68.0645 353.237 61.6237 357.2 56.1145C361.203 50.6052 366.693 46.3047 373.669 43.2132C380.645 40.1216 388.572 38.5758 397.45 38.5758C406.487 38.5758 414.374 40.1216 421.112 43.2132C427.89 46.3047 433.161 50.6052 436.927 56.1145C440.692 61.6237 442.634 68.005 442.753 75.2583H418.08ZM461.733 162V40.2405H487.476V90.4782H539.735V40.2405H565.419V162H539.735V111.703H487.476V162H461.733ZM586.644 162V40.2405H634.682C643.877 40.2405 651.725 41.8854 658.225 45.1751C664.765 48.4252 669.739 53.0427 673.148 59.0276C676.596 64.9729 678.32 71.9685 678.32 80.0145C678.32 88.1001 676.576 95.0561 673.088 100.882C669.6 106.669 664.547 111.108 657.928 114.2C651.348 117.291 643.382 118.837 634.028 118.837H601.864V98.1476H629.866C634.781 98.1476 638.863 97.4738 642.113 96.1262C645.363 94.7786 647.781 92.7572 649.367 90.062C650.992 87.3668 651.804 84.0177 651.804 80.0145C651.804 75.9717 650.992 72.5631 649.367 69.7886C647.781 67.0141 645.344 64.9135 642.054 63.4866C638.804 62.0201 634.702 61.2868 629.747 61.2868H612.387V162H586.644ZM652.399 106.59L682.66 162H654.242L624.634 106.59H652.399ZM696.513 162V40.2405H778.558V61.4652H722.256V90.4782H774.336V111.703H722.256V140.775H778.795V162H696.513ZM799.024 162V40.2405H881.069V61.4652H824.767V90.4782H876.848V111.703H824.767V140.775H881.307V162H799.024Z" fill="#EE3338"/>
<path d="M364.518 231.597V326.864H352.982V231.597H364.518ZM463.193 231.597V326.864H452.029L400.115 252.064H399.185V326.864H387.649V231.597H398.813L450.912 306.583H451.842V231.597H463.193ZM515.676 326.864H486.277V231.597H516.978C526.22 231.597 534.128 233.504 540.702 237.318C547.277 241.102 552.316 246.544 555.82 253.646C559.325 260.717 561.077 269.183 561.077 279.044C561.077 288.968 559.309 297.512 555.774 304.676C552.238 311.808 547.09 317.297 540.33 321.143C533.569 324.957 525.351 326.864 515.676 326.864ZM497.813 316.63H514.932C522.808 316.63 529.336 315.111 534.515 312.072C539.694 309.033 543.555 304.707 546.098 299.093C548.641 293.48 549.913 286.797 549.913 279.044C549.913 271.354 548.657 264.733 546.145 259.182C543.633 253.6 539.88 249.32 534.887 246.343C529.895 243.335 523.677 241.831 516.234 241.831H497.813V316.63ZM642.947 231.597H654.483V294.674C654.483 301.187 652.948 307.001 649.878 312.118C646.839 317.204 642.544 321.22 636.993 324.166C631.442 327.081 624.929 328.539 617.456 328.539C609.982 328.539 603.469 327.081 597.918 324.166C592.367 321.22 588.057 317.204 584.987 312.118C581.947 307.001 580.428 301.187 580.428 294.674V231.597H591.964V293.744C591.964 298.396 592.988 302.536 595.034 306.164C597.081 309.761 599.996 312.599 603.78 314.677C607.594 316.723 612.153 317.747 617.456 317.747C622.759 317.747 627.317 316.723 631.132 314.677C634.946 312.599 637.861 309.761 639.877 306.164C641.924 302.536 642.947 298.396 642.947 293.744V231.597ZM729.62 255.414C729.062 250.7 726.798 247.041 722.829 244.436C718.859 241.831 713.991 240.528 708.222 240.528C704.005 240.528 700.315 241.21 697.151 242.575C694.019 243.939 691.569 245.816 689.802 248.204C688.065 250.591 687.197 253.305 687.197 256.344C687.197 258.887 687.801 261.073 689.011 262.903C690.251 264.702 691.833 266.206 693.756 267.415C695.678 268.594 697.694 269.57 699.803 270.346C701.912 271.09 703.85 271.695 705.617 272.16L715.293 274.765C717.774 275.416 720.534 276.315 723.573 277.463C726.643 278.61 729.574 280.176 732.365 282.161C735.187 284.115 737.513 286.627 739.343 289.697C741.172 292.767 742.087 296.535 742.087 301.001C742.087 306.149 740.738 310.8 738.04 314.956C735.373 319.111 731.466 322.414 726.318 324.864C721.201 327.314 714.983 328.539 707.664 328.539C700.842 328.539 694.934 327.438 689.941 325.236C684.979 323.034 681.072 319.964 678.219 316.026C675.397 312.087 673.8 307.513 673.428 302.303H685.336C685.646 305.9 686.856 308.878 688.964 311.234C691.104 313.56 693.802 315.297 697.058 316.444C700.346 317.561 703.881 318.119 707.664 318.119C712.068 318.119 716.022 317.406 719.526 315.979C723.03 314.522 725.806 312.506 727.853 309.932C729.9 307.327 730.923 304.288 730.923 300.815C730.923 297.651 730.039 295.077 728.271 293.093C726.504 291.108 724.178 289.495 721.294 288.255C718.41 287.014 715.293 285.929 711.944 284.999L700.221 281.649C692.779 279.51 686.887 276.455 682.545 272.486C678.203 268.516 676.033 263.322 676.033 256.902C676.033 251.568 677.475 246.917 680.359 242.947C683.274 238.947 687.181 235.845 692.081 233.644C697.012 231.411 702.516 230.294 708.595 230.294C714.735 230.294 720.193 231.395 724.969 233.597C729.744 235.768 733.528 238.745 736.319 242.528C739.141 246.312 740.63 250.607 740.785 255.414H729.62ZM755.845 241.831V231.597H827.295V241.831H797.338V326.864H785.802V241.831H755.845ZM845.1 326.864V231.597H877.29C884.732 231.597 890.842 232.868 895.617 235.411C900.393 237.923 903.928 241.381 906.223 245.785C908.518 250.188 909.666 255.197 909.666 260.81C909.666 266.423 908.518 271.4 906.223 275.742C903.928 280.083 900.409 283.495 895.664 285.976C890.919 288.425 884.856 289.65 877.476 289.65H851.426V279.231H877.103C882.189 279.231 886.283 278.486 889.384 276.998C892.516 275.509 894.78 273.4 896.176 270.671C897.602 267.911 898.315 264.624 898.315 260.81C898.315 256.995 897.602 253.662 896.176 250.808C894.749 247.955 892.47 245.754 889.338 244.203C886.205 242.621 882.065 241.831 876.917 241.831H856.636V326.864H845.1ZM889.942 284.068L913.387 326.864H899.99L876.917 284.068H889.942ZM940.425 231.597V326.864H928.889V231.597H940.425ZM963.556 326.864V231.597H1021.05V241.831H975.092V274.021H1018.07V284.254H975.092V316.63H1021.8V326.864H963.556ZM1093.94 255.414C1093.39 250.7 1091.12 247.041 1087.15 244.436C1083.18 241.831 1078.31 240.528 1072.55 240.528C1068.33 240.528 1064.64 241.21 1061.47 242.575C1058.34 243.939 1055.89 245.816 1054.13 248.204C1052.39 250.591 1051.52 253.305 1051.52 256.344C1051.52 258.887 1052.12 261.073 1053.33 262.903C1054.57 264.702 1056.16 266.206 1058.08 267.415C1060 268.594 1062.02 269.57 1064.13 270.346C1066.24 271.09 1068.17 271.695 1069.94 272.16L1079.62 274.765C1082.1 275.416 1084.86 276.315 1087.9 277.463C1090.97 278.61 1093.9 280.176 1096.69 282.161C1099.51 284.115 1101.84 286.627 1103.67 289.697C1105.5 292.767 1106.41 296.535 1106.41 301.001C1106.41 306.149 1105.06 310.8 1102.36 314.956C1099.7 319.111 1095.79 322.414 1090.64 324.864C1085.52 327.314 1079.31 328.539 1071.99 328.539C1065.17 328.539 1059.26 327.438 1054.26 325.236C1049.3 323.034 1045.4 319.964 1042.54 316.026C1039.72 312.087 1038.12 307.513 1037.75 302.303H1049.66C1049.97 305.9 1051.18 308.878 1053.29 311.234C1055.43 313.56 1058.13 315.297 1061.38 316.444C1064.67 317.561 1068.2 318.119 1071.99 318.119C1076.39 318.119 1080.35 317.406 1083.85 315.979C1087.35 314.522 1090.13 312.506 1092.18 309.932C1094.22 307.327 1095.25 304.288 1095.25 300.815C1095.25 297.651 1094.36 295.077 1092.59 293.093C1090.83 291.108 1088.5 289.495 1085.62 288.255C1082.73 287.014 1079.62 285.929 1076.27 284.999L1064.54 281.649C1057.1 279.51 1051.21 276.455 1046.87 272.486C1042.53 268.516 1040.36 263.322 1040.36 256.902C1040.36 251.568 1041.8 246.917 1044.68 242.947C1047.6 238.947 1051.5 235.845 1056.4 233.644C1061.34 231.411 1066.84 230.294 1072.92 230.294C1079.06 230.294 1084.52 231.395 1089.29 233.597C1094.07 235.768 1097.85 238.745 1100.64 242.528C1103.46 246.312 1104.95 250.607 1105.11 255.414H1093.94Z" fill="#52668C"/>
<path fill-rule="evenodd" clip-rule="evenodd" d="M341 341H1100V350H341V341Z" fill="#52668C"/>
<mask id="mask0_30_4431" style="mask-type:luminance" maskUnits="userSpaceOnUse" x="0" y="16" width="292" height="356">
<path d="M59.1587 16.4554H232.691C265.229 16.4554 291.85 43.0765 291.85 75.6141V312.249C291.85 344.787 265.229 371.408 232.691 371.408H59.1587C26.6211 371.408 0 344.787 0 312.249V75.6141C0 43.0765 26.6211 16.4554 59.1587 16.4554Z" fill="white"/>
</mask>
<g mask="url(#mask0_30_4431)">
<path fill-rule="evenodd" clip-rule="evenodd" d="M0 16.4554H291.85V371.408H0" fill="#F99F33"/>
<path fill-rule="evenodd" clip-rule="evenodd" d="M145.07 192.892H146.78V194.972H145.07V192.892Z" fill="white"/>
<path fill-rule="evenodd" clip-rule="evenodd" d="M145.355 193.239H146.495V194.625H145.355V193.239ZM144.5 192.198H147.35V195.665H144.5V192.198Z" fill="#FFFFFD"/>
<path fill-rule="evenodd" clip-rule="evenodd" d="M144.785 192.545H147.065V195.318H144.785V192.545ZM143.93 191.506H147.92V196.358H143.93V191.506Z" fill="#FFFDFD"/>
<path fill-rule="evenodd" clip-rule="evenodd" d="M144.215 191.852H147.635V196.012H144.215V191.852ZM143.36 190.812H148.49V197.051H143.36V190.812Z" fill="#FFFDFB"/>
<path fill-rule="evenodd" clip-rule="evenodd" d="M143.645 191.159H148.205V196.705H143.645V191.159ZM142.79 190.119H149.06V197.745H142.79V190.119Z" fill="#FFFDFB"/>
<path fill-rule="evenodd" clip-rule="evenodd" d="M143.075 190.465H148.775V197.398H143.075V190.465ZM142.22 189.425H149.63V198.438H142.22V189.425Z" fill="#FFFDFA"/>
<path fill-rule="evenodd" clip-rule="evenodd" d="M142.504 189.772H149.344V198.091H142.504V189.772ZM141.649 188.732H150.2V199.131H141.649V188.732Z" fill="#FFFCF8"/>
<path fill-rule="evenodd" clip-rule="evenodd" d="M141.935 189.079H149.916V198.784H141.935V189.079ZM141.08 188.039H150.77V199.824H141.08V188.039Z" fill="#FFFCF8"/>
<path fill-rule="evenodd" clip-rule="evenodd" d="M141.365 188.386H150.485V199.478H141.365V188.386ZM140.51 187.345H151.34V200.518H140.51V187.345Z" fill="#FFFCF7"/>
<path fill-rule="evenodd" clip-rule="evenodd" d="M140.795 187.692H151.056V200.171H140.795V187.692ZM139.94 186.652H151.911V201.211H139.94V186.652Z" fill="#FFFAF6"/>
<path fill-rule="evenodd" clip-rule="evenodd" d="M140.225 186.999H151.626V200.865H140.225V186.999ZM139.37 185.959H152.481V201.904H139.37V185.959Z" fill="#FFFAF6"/>
<path fill-rule="evenodd" clip-rule="evenodd" d="M139.655 186.306H152.195V201.558H139.655V186.306ZM138.8 185.266H153.05V202.598H138.8V185.266Z" fill="#FFFAF5"/>
<path fill-rule="evenodd" clip-rule="evenodd" d="M139.084 185.613H152.765V202.251H139.084V185.613ZM138.229 184.573H153.62V203.291H138.229V184.573Z" fill="#FFFAF5"/>
<path fill-rule="evenodd" clip-rule="evenodd" d="M138.515 184.919H153.336V202.944H138.515V184.919ZM137.66 183.88H154.191V203.984H137.66V183.88Z" fill="#FFF9F4"/>
<path fill-rule="evenodd" clip-rule="evenodd" d="M137.945 184.226H153.905V203.638H137.945V184.226ZM137.09 183.186H154.76V204.677H137.09V183.186Z" fill="#FFF9F3"/>
<path fill-rule="evenodd" clip-rule="evenodd" d="M137.375 183.533H154.475V204.331H137.375V183.533ZM136.52 182.493H155.33V205.371H136.52V182.493Z" fill="#FFF9F3"/>
<path fill-rule="evenodd" clip-rule="evenodd" d="M136.805 182.84H155.045V205.024H136.805V182.84ZM135.949 181.799H155.9V206.064H135.949V181.799Z" fill="#FFF9F2"/>
<path fill-rule="evenodd" clip-rule="evenodd" d="M136.235 182.146H155.615V205.717H136.235V182.146ZM135.38 181.106H156.471V206.757H135.38V181.106Z" fill="#FFF8F1"/>
<path fill-rule="evenodd" clip-rule="evenodd" d="M135.664 181.453H156.185V206.411H135.664V181.453ZM134.81 180.413H157.04V207.451H134.81V180.413Z" fill="#FFF8F1"/>
<path fill-rule="evenodd" clip-rule="evenodd" d="M135.094 180.76H156.755V207.104H135.094V180.76ZM134.239 179.72H157.61V208.144H134.239V179.72Z" fill="#FFF8F0"/>
<path fill-rule="evenodd" clip-rule="evenodd" d="M134.525 180.066H157.326V207.797H134.525V180.066ZM133.67 179.026H158.181V208.837H133.67V179.026Z" fill="#FFF7EF"/>
<path fill-rule="evenodd" clip-rule="evenodd" d="M133.955 179.373H157.896V208.491H133.955V179.373ZM133.1 178.333H158.75V209.53H133.1V178.333Z" fill="#FFF7EF"/>
<path fill-rule="evenodd" clip-rule="evenodd" d="M133.384 178.68H158.465V209.184H133.384V178.68ZM132.529 177.64H159.32V210.224H132.529V177.64Z" fill="#FFF7EE"/>
<path fill-rule="evenodd" clip-rule="evenodd" d="M132.814 177.987H159.035V209.877H132.814V177.987ZM131.959 176.946H159.89V210.917H131.959V176.946Z" fill="#FFF7EE"/>
<path fill-rule="evenodd" clip-rule="evenodd" d="M132.245 177.293H159.606V210.57H132.245V177.293ZM131.39 176.254H160.461V211.61H131.39V176.254Z" fill="#FFF6ED"/>
<path fill-rule="evenodd" clip-rule="evenodd" d="M131.674 176.6H160.175V211.263H131.674V176.6ZM130.819 175.56H161.03V212.303H130.819V175.56Z" fill="#FFF6ED"/>
<path fill-rule="evenodd" clip-rule="evenodd" d="M131.105 175.907H160.746V211.957H131.105V175.907ZM130.25 174.867H161.601V212.997H130.25V174.867Z" fill="#FFF6EC"/>
<path fill-rule="evenodd" clip-rule="evenodd" d="M130.535 175.214H161.316V212.65H130.535V175.214ZM129.68 174.173H162.171V213.69H129.68V174.173Z" fill="#FFF5EB"/>
<path fill-rule="evenodd" clip-rule="evenodd" d="M129.964 174.52H161.886V213.343H129.964V174.52ZM129.109 173.48H162.741V214.383H129.109V173.48Z" fill="#FFF5EB"/>
<path fill-rule="evenodd" clip-rule="evenodd" d="M129.394 173.827H162.455V214.036H129.394V173.827ZM128.539 172.787H163.31V215.076H128.539V172.787Z" fill="#FFF5EA"/>
<path fill-rule="evenodd" clip-rule="evenodd" d="M128.825 173.134H163.026V214.73H128.825V173.134ZM127.97 172.094H163.881V215.77H127.97V172.094Z" fill="#FFF5E9"/>
<path fill-rule="evenodd" clip-rule="evenodd" d="M128.254 172.44H163.596V215.423H128.254V172.44ZM127.399 171.4H164.451V216.463H127.399V171.4Z" fill="#FFF4E9"/>
<path fill-rule="evenodd" clip-rule="evenodd" d="M127.684 171.747H164.166V216.116H127.684V171.747ZM126.829 170.707H165.02V217.156H126.829V170.707Z" fill="#FFF4E8"/>
<path fill-rule="evenodd" clip-rule="evenodd" d="M127.114 171.054H164.735V216.81H127.114V171.054ZM126.259 170.014H165.591V217.85H126.259V170.014Z" fill="#FFF4E8"/>
<path fill-rule="evenodd" clip-rule="evenodd" d="M126.544 170.361H165.306V217.503H126.544V170.361ZM125.689 169.32H166.161V218.542H125.689V169.32Z" fill="#FFF3E7"/>
<path fill-rule="evenodd" clip-rule="evenodd" d="M125.974 169.667H165.876V218.196H125.974V169.667ZM125.119 168.627H166.731V219.236H125.119V168.627Z" fill="#FFF3E6"/>
<path fill-rule="evenodd" clip-rule="evenodd" d="M125.404 168.974H166.445V218.889H125.404V168.974ZM124.549 167.934H167.3V219.929H124.549V167.934Z" fill="#FFF3E6"/>
<path fill-rule="evenodd" clip-rule="evenodd" d="M124.834 168.281H167.016V219.583H124.834V168.281ZM123.979 167.241H167.871V220.623H123.979V167.241Z" fill="#FFF3E6"/>
<path fill-rule="evenodd" clip-rule="evenodd" d="M124.265 167.588H167.586V220.276H124.265V167.588ZM123.409 166.547H168.441V221.315H123.409V166.547Z" fill="#FFF3E5"/>
<path fill-rule="evenodd" clip-rule="evenodd" d="M123.694 166.894H168.155V220.969H123.694V166.894ZM122.839 165.855H169.011V222.009H122.839V165.855Z" fill="#FFF3E4"/>
<path fill-rule="evenodd" clip-rule="evenodd" d="M123.124 166.201H168.726V221.662H123.124V166.201ZM122.27 165.161H169.581V222.702H122.27V165.161Z" fill="#FFF2E4"/>
<path fill-rule="evenodd" clip-rule="evenodd" d="M122.554 165.508H169.296V222.356H122.554V165.508ZM121.699 164.468H170.151V223.396H121.699V164.468Z" fill="#FFF2E3"/>
<path fill-rule="evenodd" clip-rule="evenodd" d="M121.984 164.815H169.865V223.049H121.984V164.815ZM121.129 163.774H170.72V224.089H121.129V163.774Z" fill="#FFF2E2"/>
<path fill-rule="evenodd" clip-rule="evenodd" d="M121.414 164.121H170.436V223.742H121.414V164.121ZM120.559 163.081H171.29V224.782H120.559V163.081Z" fill="#FFF2E2"/>
<path fill-rule="evenodd" clip-rule="evenodd" d="M120.844 163.428H171.006V224.436H120.844V163.428ZM119.989 162.388H171.861V225.476H119.989V162.388Z" fill="#FFF2E2"/>
<path fill-rule="evenodd" clip-rule="evenodd" d="M120.274 162.735H171.576V225.129H120.274V162.735ZM119.419 161.695H172.431V226.168H119.419V161.695Z" fill="#FFF1E0"/>
<path fill-rule="evenodd" clip-rule="evenodd" d="M119.704 162.042H172.146V225.822H119.704V162.042ZM118.849 161.002H173.001V226.862H118.849V161.002Z" fill="#FFF1E0"/>
<path fill-rule="evenodd" clip-rule="evenodd" d="M119.134 161.348H172.716V226.515H119.134V161.348ZM118.279 160.308H173.571V227.555H118.279V160.308Z" fill="#FFF1E0"/>
<path fill-rule="evenodd" clip-rule="evenodd" d="M118.564 160.655H173.286V227.209H118.564V160.655ZM117.709 159.615H174.141V228.249H117.709V159.615Z" fill="#FFF1DF"/>
<path fill-rule="evenodd" clip-rule="evenodd" d="M117.994 159.962H173.856V227.902H117.994V159.962ZM117.139 158.922H174.711V228.941H117.139V158.922Z" fill="#FFF0DF"/>
<path fill-rule="evenodd" clip-rule="evenodd" d="M117.424 159.268H174.426V228.595H117.424V159.268ZM116.569 158.229H175.282V229.635H116.569V158.229Z" fill="#FFF0DE"/>
<path fill-rule="evenodd" clip-rule="evenodd" d="M116.854 158.575H174.996V229.288H116.854V158.575ZM115.999 157.535H175.851V230.328H115.999V157.535Z" fill="#FFF0DE"/>
<path fill-rule="evenodd" clip-rule="evenodd" d="M116.284 157.882H175.566V229.982H116.284V157.882ZM115.429 156.842H176.421V231.021H115.429V156.842Z" fill="#FFEFDD"/>
<path fill-rule="evenodd" clip-rule="evenodd" d="M115.714 157.189H176.136V230.675H115.714V157.189ZM114.859 156.148H176.991V231.715H114.859V156.148Z" fill="#FFEFDC"/>
<path fill-rule="evenodd" clip-rule="evenodd" d="M115.144 156.495H176.706V231.368H115.144V156.495ZM114.289 155.455H177.561V232.408H114.289V155.455Z" fill="#FFEFDC"/>
<path fill-rule="evenodd" clip-rule="evenodd" d="M114.574 155.802H177.276V232.061H114.574V155.802ZM113.719 154.762H178.131V233.101H113.719V154.762Z" fill="#FFEFDC"/>
<path fill-rule="evenodd" clip-rule="evenodd" d="M114.003 155.109H177.846V232.755H114.003V155.109ZM113.148 154.069H178.701V233.794H113.148V154.069Z" fill="#FFEEDB"/>
<path fill-rule="evenodd" clip-rule="evenodd" d="M113.434 154.416H178.417V233.448H113.434V154.416ZM112.579 153.376H179.272V234.488H112.579V153.376Z" fill="#FFEEDB"/>
<path fill-rule="evenodd" clip-rule="evenodd" d="M112.864 153.722H178.986V234.141H112.864V153.722ZM112.009 152.682H179.841V235.181H112.009V152.682Z" fill="#FFEEDA"/>
<path fill-rule="evenodd" clip-rule="evenodd" d="M112.293 153.029H179.556V234.835H112.293V153.029ZM111.438 151.989H180.411V235.875H111.438V151.989Z" fill="#FFEDD9"/>
<path fill-rule="evenodd" clip-rule="evenodd" d="M111.724 152.336H180.127V235.528H111.724V152.336ZM110.869 151.296H180.982V236.567H110.869V151.296Z" fill="#FFEDD9"/>
<path fill-rule="evenodd" clip-rule="evenodd" d="M111.154 151.643H180.696V236.221H111.154V151.643ZM110.299 150.603H181.552V237.261H110.299V150.603Z" fill="#FFEDD8"/>
<path fill-rule="evenodd" clip-rule="evenodd" d="M110.583 150.949H181.266V236.914H110.583V150.949ZM109.729 149.909H182.121V237.954H109.729V149.909Z" fill="#FFEDD8"/>
<path fill-rule="evenodd" clip-rule="evenodd" d="M110.014 150.256H181.837V237.608H110.014V150.256ZM109.159 149.216H182.692V238.647H109.159V149.216Z" fill="#FFECD7"/>
<path fill-rule="evenodd" clip-rule="evenodd" d="M109.444 149.563H182.406V238.301H109.444V149.563ZM108.589 148.523H183.261V239.341H108.589V148.523Z" fill="#FFECD6"/>
<path fill-rule="evenodd" clip-rule="evenodd" d="M108.873 148.869H182.976V238.994H108.873V148.869ZM108.019 147.83H183.831V240.034H108.019V147.83Z" fill="#FFECD6"/>
<path fill-rule="evenodd" clip-rule="evenodd" d="M108.304 148.176H183.546V239.687H108.304V148.176ZM107.448 147.136H184.401V240.727H107.448V147.136Z" fill="#FFECD5"/>
<path fill-rule="evenodd" clip-rule="evenodd" d="M107.734 147.483H184.117V240.381H107.734V147.483ZM106.879 146.443H184.972V241.42H106.879V146.443Z" fill="#FFECD5"/>
<path fill-rule="evenodd" clip-rule="evenodd" d="M107.164 146.79H184.686V241.074H107.164V146.79ZM106.309 145.75H185.541V242.114H106.309V145.75Z" fill="#FFECD5"/>
<path fill-rule="evenodd" clip-rule="evenodd" d="M106.593 146.096H185.256V241.767H106.593V146.096ZM105.738 145.056H186.111V242.807H105.738V145.056Z" fill="#FFECD4"/>
<path fill-rule="evenodd" clip-rule="evenodd" d="M106.024 145.403H185.827V242.461H106.024V145.403ZM105.169 144.363H186.682V243.5H105.169V144.363Z" fill="#FFEBD4"/>
<path fill-rule="evenodd" clip-rule="evenodd" d="M105.454 144.71H186.397V243.153H105.454V144.71ZM104.599 143.67H187.252V244.193H104.599V143.67Z" fill="#FFEBD3"/>
<path fill-rule="evenodd" clip-rule="evenodd" d="M104.884 144.017H186.966V243.847H104.884V144.017ZM104.028 142.977H187.822V244.887H104.028V142.977Z" fill="#FFEBD3"/>
<path fill-rule="evenodd" clip-rule="evenodd" d="M104.314 143.323H187.537V244.54H104.314V143.323ZM103.459 142.283H188.392V245.58H103.459V142.283Z" fill="#FFEBD2"/>
<path fill-rule="evenodd" clip-rule="evenodd" d="M103.744 142.63H188.107V245.234H103.744V142.63ZM102.889 141.59H188.962V246.273H102.889V141.59Z" fill="#FFEAD1"/>
<path fill-rule="evenodd" clip-rule="evenodd" d="M103.173 141.937H188.676V245.927H103.173V141.937ZM102.318 140.897H189.531V246.966H102.318V140.897Z" fill="#FFEAD1"/>
<path fill-rule="evenodd" clip-rule="evenodd" d="M102.604 141.243H189.247V246.62H102.604V141.243ZM101.749 140.204H190.102V247.66H101.749V140.204Z" fill="#FFEAD0"/>
<path fill-rule="evenodd" clip-rule="evenodd" d="M102.034 140.55H189.817V247.314H102.034V140.55ZM101.179 139.511H190.672V248.354H101.179V139.511Z" fill="#FFE9CF"/>
<path fill-rule="evenodd" clip-rule="evenodd" d="M101.464 139.857H190.387V248.007H101.464V139.857ZM100.608 138.817H191.242V249.046H100.608V138.817Z" fill="#FFE9CF"/>
<path fill-rule="evenodd" clip-rule="evenodd" d="M100.893 139.164H190.956V248.7H100.893V139.164ZM100.038 138.123H191.811V249.74H100.038V138.123Z" fill="#FFE9CF"/>
<path fill-rule="evenodd" clip-rule="evenodd" d="M100.324 138.47H191.527V249.393H100.324V138.47ZM99.4688 137.43H192.382V250.433H99.4688V137.43Z" fill="#FFE9CF"/>
<path fill-rule="evenodd" clip-rule="evenodd" d="M99.7534 137.777H192.097V250.086H99.7534V137.777ZM98.8984 136.737H192.951V251.126H98.8984V136.737Z" fill="#FFE8CE"/>
<path fill-rule="evenodd" clip-rule="evenodd" d="M99.1831 137.084H192.666V250.78H99.1831V137.084ZM98.3281 136.044H193.521V251.819H98.3281V136.044Z" fill="#FFE8CD"/>
<path fill-rule="evenodd" clip-rule="evenodd" d="M98.613 136.391H193.236V251.473H98.613V136.391ZM97.7578 135.351H194.091V252.513H97.7578V135.351Z" fill="#FFE8CD"/>
<path fill-rule="evenodd" clip-rule="evenodd" d="M98.0434 135.697H193.807V252.166H98.0434V135.697ZM97.1885 134.658H194.662V253.206H97.1885V134.658Z" fill="#FFE7CC"/>
<path fill-rule="evenodd" clip-rule="evenodd" d="M97.4731 135.004H194.377V252.86H97.4731V135.004ZM96.6182 133.965H195.232V253.899H96.6182V133.965Z" fill="#FFE7CC"/>
<path fill-rule="evenodd" clip-rule="evenodd" d="M96.9038 134.311H194.947V253.553H96.9038V134.311ZM96.0488 133.271H195.802V254.592H96.0488V133.271Z" fill="#FFE7CB"/>
<path fill-rule="evenodd" clip-rule="evenodd" d="M96.3334 133.617H195.517V254.246H96.3334V133.617ZM95.4785 132.578H196.372V255.286H95.4785V132.578Z" fill="#FFE7CB"/>
<path fill-rule="evenodd" clip-rule="evenodd" d="M95.7635 132.924H196.087V254.939H95.7635V132.924ZM94.9082 131.884H196.942V255.979H94.9082V131.884Z" fill="#FFE7CA"/>
<path fill-rule="evenodd" clip-rule="evenodd" d="M95.1932 132.231H196.656V255.633H95.1932V132.231ZM94.3379 131.191H197.512V256.672H94.3379V131.191Z" fill="#FFE7C9"/>
<path fill-rule="evenodd" clip-rule="evenodd" d="M94.6235 131.538H197.227V256.326H94.6235V131.538ZM93.7686 130.498H198.082V257.366H93.7686V130.498Z" fill="#FFE6C9"/>
<path fill-rule="evenodd" clip-rule="evenodd" d="M94.0532 130.844H197.797V257.019H94.0532V130.844ZM93.1982 129.805H198.652V258.059H93.1982V129.805Z" fill="#FFE6C8"/>
<path fill-rule="evenodd" clip-rule="evenodd" d="M93.4829 130.151H198.367V257.713H93.4829V130.151ZM92.6279 129.112H199.222V258.752H92.6279V129.112Z" fill="#FFE6C8"/>
<path fill-rule="evenodd" clip-rule="evenodd" d="M92.9135 129.458H198.937V258.406H92.9135V129.458ZM92.0586 128.418H199.792V259.445H92.0586V128.418Z" fill="#FFE6C8"/>
<path fill-rule="evenodd" clip-rule="evenodd" d="M92.3436 128.765H199.507V259.099H92.3436V128.765ZM91.4883 127.725H200.362V260.139H91.4883V127.725Z" fill="#FFE6C7"/>
<path fill-rule="evenodd" clip-rule="evenodd" d="M91.7729 128.071H200.077V259.792H91.7729V128.071ZM90.918 127.031H200.932V260.832H90.918V127.031Z" fill="#FFE5C6"/>
<path fill-rule="evenodd" clip-rule="evenodd" d="M91.2026 127.378H200.647V260.486H91.2026V127.378ZM90.3477 126.338H201.502V261.525H90.3477V126.338Z" fill="#FFE5C6"/>
<path fill-rule="evenodd" clip-rule="evenodd" d="M90.6332 126.685H201.217V261.178H90.6332V126.685ZM89.7783 125.645H202.072V262.218H89.7783V125.645Z" fill="#FFE5C5"/>
<path fill-rule="evenodd" clip-rule="evenodd" d="M90.0629 125.992H201.787V261.872H90.0629V125.992ZM89.208 124.952H202.642V262.912H89.208V124.952Z" fill="#FFE4C5"/>
<path fill-rule="evenodd" clip-rule="evenodd" d="M89.493 125.298H202.357V262.565H89.493V125.298ZM88.6377 124.258H203.212V263.605H88.6377V124.258Z" fill="#FFE4C4"/>
<path fill-rule="evenodd" clip-rule="evenodd" d="M88.9227 124.605H202.926V263.259H88.9227V124.605ZM88.0674 123.565H203.782V264.298H88.0674V123.565Z" fill="#FFE4C4"/>
<path fill-rule="evenodd" clip-rule="evenodd" d="M88.353 123.912H203.497V263.951H88.353V123.912ZM87.498 122.872H204.352V264.991H87.498V122.872Z" fill="#FFE4C4"/>
<path fill-rule="evenodd" clip-rule="evenodd" d="M87.7827 123.218H204.067V264.645H87.7827V123.218ZM86.9277 122.179H204.922V265.685H86.9277V122.179Z" fill="#FFE3C2"/>
<path fill-rule="evenodd" clip-rule="evenodd" d="M87.2133 122.525H204.638V265.339H87.2133V122.525ZM86.3584 121.486H205.493V266.378H86.3584V121.486Z" fill="#FFE3C2"/>
<path fill-rule="evenodd" clip-rule="evenodd" d="M86.643 121.832H205.207V266.032H86.643V121.832ZM85.7881 120.792H206.062V267.071H85.7881V120.792Z" fill="#FFE3C2"/>
<path fill-rule="evenodd" clip-rule="evenodd" d="M86.0731 121.139H205.777V266.725H86.0731V121.139ZM85.2178 120.099H206.632V267.765H85.2178V120.099Z" fill="#FFE3C1"/>
<path fill-rule="evenodd" clip-rule="evenodd" d="M85.5028 120.445H206.347V267.418H85.5028V120.445ZM84.6475 119.405H207.202V268.458H84.6475V119.405Z" fill="#FFE2C1"/>
<path fill-rule="evenodd" clip-rule="evenodd" d="M84.9331 119.752H206.917V268.112H84.9331V119.752ZM84.0781 118.712H207.773V269.151H84.0781V118.712Z" fill="#FFE2C0"/>
<path fill-rule="evenodd" clip-rule="evenodd" d="M84.3628 119.059H207.487V268.805H84.3628V119.059ZM83.5078 118.019H208.342V269.844H83.5078V118.019Z" fill="#FFE2BF"/>
<path fill-rule="evenodd" clip-rule="evenodd" d="M83.7924 118.366H208.057V269.498H83.7924V118.366ZM82.9375 117.326H208.912V270.538H82.9375V117.326Z" fill="#FFE2BF"/>
<path fill-rule="evenodd" clip-rule="evenodd" d="M83.2231 117.672H208.627V270.191H83.2231V117.672ZM82.3682 116.632H209.482V271.231H82.3682V116.632Z" fill="#FFE1BE"/>
<path fill-rule="evenodd" clip-rule="evenodd" d="M82.6532 116.979H209.197V270.885H82.6532V116.979ZM81.7979 115.94H210.052V271.924H81.7979V115.94Z" fill="#FFE1BE"/>
<path fill-rule="evenodd" clip-rule="evenodd" d="M82.0825 116.286H209.767V271.577H82.0825V116.286ZM81.2275 115.246H210.622V272.617H81.2275V115.246Z" fill="#FFE1BE"/>
<path fill-rule="evenodd" clip-rule="evenodd" d="M81.5131 115.592H210.338V272.271H81.5131V115.592ZM80.6582 114.553H211.193V273.311H80.6582V114.553Z" fill="#FFE1BD"/>
<path fill-rule="evenodd" clip-rule="evenodd" d="M80.9428 114.899H210.908V272.964H80.9428V114.899ZM80.0879 113.859H211.763V274.004H80.0879V113.859Z" fill="#FFE1BD"/>
<path fill-rule="evenodd" clip-rule="evenodd" d="M80.3725 114.206H211.477V273.658H80.3725V114.206ZM79.5176 113.166H212.332V274.697H79.5176V113.166Z" fill="#FFE1BC"/>
<path fill-rule="evenodd" clip-rule="evenodd" d="M79.8026 113.513H212.047V274.351H79.8026V113.513ZM78.9473 112.473H212.902V275.391H78.9473V112.473Z" fill="#FFE0BB"/>
<path fill-rule="evenodd" clip-rule="evenodd" d="M79.2331 112.819H212.618V275.044H79.2331V112.819ZM78.3779 111.78H213.473V276.084H78.3779V111.78Z" fill="#FFE0BB"/>
<path fill-rule="evenodd" clip-rule="evenodd" d="M78.6626 112.126H213.187V275.738H78.6626V112.126ZM77.8076 111.087H214.043V276.777H77.8076V111.087Z" fill="#FFE0BA"/>
<path fill-rule="evenodd" clip-rule="evenodd" d="M78.0922 111.433H213.757V276.43H78.0922V111.433ZM77.2373 110.393H214.612V277.47H77.2373V110.393Z" fill="#FFE0BA"/>
<path fill-rule="evenodd" clip-rule="evenodd" d="M77.5229 110.74H214.328V277.124H77.5229V110.74ZM76.668 109.7H215.183V278.164H76.668V109.7Z" fill="#FFDFB9"/>
<path fill-rule="evenodd" clip-rule="evenodd" d="M76.9526 110.046H214.897V277.817H76.9526V110.046ZM76.0977 109.007H215.752V278.857H76.0977V109.007Z" fill="#FFDFB9"/>
<path fill-rule="evenodd" clip-rule="evenodd" d="M76.3825 109.353H215.467V278.511H76.3825V109.353ZM75.5273 108.313H216.322V279.55H75.5273V108.313Z" fill="#FFDFB9"/>
<path fill-rule="evenodd" clip-rule="evenodd" d="M75.812 108.66H216.037V279.204H75.812V108.66ZM74.957 107.62H216.892V280.244H74.957V107.62Z" fill="#FFDEB8"/>
<path fill-rule="evenodd" clip-rule="evenodd" d="M75.2426 107.967H216.608V279.897H75.2426V107.967ZM74.3877 106.927H217.463V280.937H74.3877V106.927Z" fill="#FFDEB7"/>
<path fill-rule="evenodd" clip-rule="evenodd" d="M74.6723 107.273H217.178V280.59H74.6723V107.273ZM73.8174 106.233H218.032V281.63H73.8174V106.233Z" fill="#FFDEB7"/>
<path fill-rule="evenodd" clip-rule="evenodd" d="M74.103 106.58H217.748V281.284H74.103V106.58ZM73.248 105.54H218.603V282.323H73.248V105.54Z" fill="#FFDEB6"/>
<path fill-rule="evenodd" clip-rule="evenodd" d="M73.5327 105.887H218.318V281.976H73.5327V105.887ZM72.6777 104.847H219.173V283.016H72.6777V104.847Z" fill="#FFDDB6"/>
<path fill-rule="evenodd" clip-rule="evenodd" d="M72.9628 105.193H218.888V282.67H72.9628V105.193ZM72.1074 104.154H219.743V283.71H72.1074V104.154Z" fill="#FFDDB5"/>
<path fill-rule="evenodd" clip-rule="evenodd" d="M72.392 104.5H219.457V283.364H72.392V104.5ZM71.5371 103.461H220.313V284.403H71.5371V103.461Z" fill="#FFDDB5"/>
<path fill-rule="evenodd" clip-rule="evenodd" d="M71.8226 103.807H220.028V284.056H71.8226V103.807ZM70.9678 102.767H220.883V285.096H70.9678V102.767Z" fill="#FFDDB4"/>
<path fill-rule="evenodd" clip-rule="evenodd" d="M71.2524 103.114H220.598V284.75H71.2524V103.114ZM70.3975 102.074H221.453V285.79H70.3975V102.074Z" fill="#FFDDB4"/>
<path fill-rule="evenodd" clip-rule="evenodd" d="M70.6821 102.42H221.167V285.443H70.6821V102.42ZM69.8271 101.381H222.022V286.483H69.8271V101.381Z" fill="#FFDDB4"/>
<path fill-rule="evenodd" clip-rule="evenodd" d="M70.1122 101.727H221.737V286.136H70.1122V101.727ZM69.2568 100.687H222.592V287.176H69.2568V100.687Z" fill="#FFDDB3"/>
<path fill-rule="evenodd" clip-rule="evenodd" d="M69.5428 101.034H222.308V286.829H69.5428V101.034ZM68.6875 99.9938H223.163V287.869H68.6875V99.9938Z" fill="#FFDCB2"/>
<path fill-rule="evenodd" clip-rule="evenodd" d="M68.9721 100.341H222.878V287.523H68.9721V100.341ZM68.1172 99.3009H223.733V288.563H68.1172V99.3009Z" fill="#FFDCB2"/>
<path fill-rule="evenodd" clip-rule="evenodd" d="M68.4018 99.6471H223.447V288.216H68.4018V99.6471ZM67.5469 98.6074H224.302V289.256H67.5469V98.6074Z" fill="#FFDCB1"/>
<path fill-rule="evenodd" clip-rule="evenodd" d="M67.8325 98.9543H224.018V288.909H67.8325V98.9543ZM66.9775 97.9145H224.873V289.949H66.9775V97.9145Z" fill="#FFDCB1"/>
<path fill-rule="evenodd" clip-rule="evenodd" d="M67.262 98.2612H224.588V289.603H67.262V98.2612ZM66.4072 97.2211H225.443V290.643H66.4072V97.2211Z" fill="#FFDBB0"/>
<path fill-rule="evenodd" clip-rule="evenodd" d="M66.6923 97.5674H225.158V290.296H66.6923V97.5674ZM65.8369 96.5277H226.013V291.336H65.8369V96.5277Z" fill="#FFDBB0"/>
<path fill-rule="evenodd" clip-rule="evenodd" d="M66.1215 96.8742H225.727V290.989H66.1215V96.8742ZM65.2666 95.8344H226.583V292.029H65.2666V95.8344Z" fill="#FFDBB0"/>
<path fill-rule="evenodd" clip-rule="evenodd" d="M65.5522 96.1811H226.298V291.682H65.5522V96.1811ZM64.6973 95.1414H227.153V292.722H64.6973V95.1414Z" fill="#FFDAAF"/>
<path fill-rule="evenodd" clip-rule="evenodd" d="M64.9819 95.4881H226.868V292.376H64.9819V95.4881ZM64.127 94.4479H227.723V293.416H64.127V94.4479Z" fill="#FFDAAE"/>
<path fill-rule="evenodd" clip-rule="evenodd" d="M64.4125 94.7944H227.438V293.069H64.4125V94.7944ZM63.5576 93.7545H228.293V294.109H63.5576V93.7545Z" fill="#FFDAAE"/>
<path fill-rule="evenodd" clip-rule="evenodd" d="M63.8426 94.1015H228.008V293.763H63.8426V94.1015ZM62.9873 93.0617H228.863V294.802H62.9873V93.0617Z" fill="#FFDAAD"/>
<path fill-rule="evenodd" clip-rule="evenodd" d="M63.2723 93.4079H228.578V294.455H63.2723V93.4079ZM62.417 92.3678H229.433V295.495H62.417V92.3678Z" fill="#FFD9AC"/>
<path fill-rule="evenodd" clip-rule="evenodd" d="M62.7016 92.715H229.147V295.149H62.7016V92.715ZM61.8467 91.6748H230.003V296.189H61.8467V91.6748Z" fill="#FFD9AC"/>
<path fill-rule="evenodd" clip-rule="evenodd" d="M62.1323 92.0213H229.718V295.842H62.1323V92.0213ZM61.2773 90.9816H230.573V296.882H61.2773V90.9816Z" fill="#FFD9AC"/>
<path fill-rule="evenodd" clip-rule="evenodd" d="M61.562 91.3283H230.288V296.535H61.562V91.3283ZM60.707 90.2885H231.143V297.575H60.707V90.2885Z" fill="#FFD8AB"/>
<path fill-rule="evenodd" clip-rule="evenodd" d="M60.9917 90.6352H230.858V297.229H60.9917V90.6352ZM60.1367 89.5951H231.712V298.269H60.1367V89.5951Z" fill="#FFD8AB"/>
<path fill-rule="evenodd" clip-rule="evenodd" d="M60.4217 89.942H231.428V297.922H60.4217V89.942ZM59.5664 88.9019H232.283V298.962H59.5664V88.9019Z" fill="#FFD8AA"/>
<path fill-rule="evenodd" clip-rule="evenodd" d="M59.852 89.2481H231.998V298.615H59.852V89.2481ZM58.9971 88.2084H232.853V299.655H58.9971V88.2084Z" fill="#FFD8AA"/>
<path fill-rule="evenodd" clip-rule="evenodd" d="M59.2817 88.5551H232.568V299.308H59.2817V88.5551ZM58.4268 87.5154H233.423V300.348H58.4268V87.5154Z" fill="#FED8A9"/>
<path fill-rule="evenodd" clip-rule="evenodd" d="M58.7124 87.8622H233.139V300.002H58.7124V87.8622ZM57.8574 86.8221H233.994V301.042H57.8574V86.8221Z" fill="#FED8A9"/>
<path fill-rule="evenodd" clip-rule="evenodd" d="M58.142 87.1685H233.708V300.695H58.142V87.1685ZM57.2871 86.1288H234.563V301.735H57.2871V86.1288Z" fill="#FFD8A8"/>
<path fill-rule="evenodd" clip-rule="evenodd" d="M57.5717 86.4754H234.278V301.389H57.5717V86.4754ZM56.7168 85.4357H235.133V302.428H56.7168V85.4357Z" fill="#FED7A7"/>
<path fill-rule="evenodd" clip-rule="evenodd" d="M57.0017 85.7819H234.848V302.081H57.0017V85.7819ZM56.1465 84.7419H235.703V303.121H56.1465V84.7419Z" fill="#FED7A7"/>
<path fill-rule="evenodd" clip-rule="evenodd" d="M56.4321 85.0891H235.418V302.775H56.4321V85.0891ZM55.5771 84.049H236.274V303.814H55.5771V84.049Z" fill="#FED7A7"/>
<path fill-rule="evenodd" clip-rule="evenodd" d="M55.8618 84.3953H235.988V303.468H55.8618V84.3953ZM55.0068 83.3556H236.843V304.508H55.0068V83.3556Z" fill="#FFD7A6"/>
<path fill-rule="evenodd" clip-rule="evenodd" d="M55.2915 83.7022H236.558V304.161H55.2915V83.7022ZM54.4365 82.6625H237.413V305.201H54.4365V82.6625Z" fill="#FED6A6"/>
<path fill-rule="evenodd" clip-rule="evenodd" d="M54.7221 83.009H237.129V304.854H54.7221V83.009ZM53.8672 81.9688H237.983V305.894H53.8672V81.9688Z" fill="#FED6A5"/>
<path fill-rule="evenodd" clip-rule="evenodd" d="M54.1522 82.316H237.699V305.548H54.1522V82.316ZM53.2969 81.2759H238.554V306.588H53.2969V81.2759Z" fill="#FED6A5"/>
<path fill-rule="evenodd" clip-rule="evenodd" d="M53.5819 81.6226H238.268V306.241H53.5819V81.6226ZM52.7266 80.5829H239.123V307.281H52.7266V80.5829Z" fill="#FED6A4"/>
<path fill-rule="evenodd" clip-rule="evenodd" d="M53.0112 80.9293H238.838V306.934H53.0112V80.9293ZM52.1562 79.8896H239.693V307.974H52.1562V79.8896Z" fill="#FED5A3"/>
<path fill-rule="evenodd" clip-rule="evenodd" d="M52.4418 80.2363H239.409V307.628H52.4418V80.2363ZM51.5869 79.1961H240.264V308.667H51.5869V79.1961Z" fill="#FED5A3"/>
<path fill-rule="evenodd" clip-rule="evenodd" d="M51.8715 79.5425H239.978V308.321H51.8715V79.5425ZM51.0166 78.5027H240.833V309.361H51.0166V78.5027Z" fill="#FED5A3"/>
<path fill-rule="evenodd" clip-rule="evenodd" d="M51.3022 78.8495H240.549V309.014H51.3022V78.8495ZM50.4473 77.8097H241.404V310.054H50.4473V77.8097Z" fill="#FED4A3"/>
<path fill-rule="evenodd" clip-rule="evenodd" d="M50.7323 78.1561H241.119V309.707H50.7323V78.1561ZM49.877 77.1164H241.974V310.747H49.877V77.1164Z" fill="#FED4A2"/>
<path fill-rule="evenodd" clip-rule="evenodd" d="M50.1616 77.4631H241.688V310.401H50.1616V77.4631ZM49.3066 76.4229H242.544V311.44H49.3066V76.4229Z" fill="#FED4A1"/>
<path fill-rule="evenodd" clip-rule="evenodd" d="M49.5913 76.7694H242.258V311.094H49.5913V76.7694ZM48.7363 75.7295H243.113V312.134H48.7363V75.7295Z" fill="#FED4A1"/>
<path fill-rule="evenodd" clip-rule="evenodd" d="M49.0219 76.0765H242.829V311.787H49.0219V76.0765ZM48.167 75.0368H243.684V312.827H48.167V75.0368Z" fill="#FED4A0"/>
<path fill-rule="evenodd" clip-rule="evenodd" d="M48.4516 75.3829H243.399V312.48H48.4516V75.3829ZM47.5967 74.3428H244.253V313.52H47.5967V74.3428Z" fill="#FED4A0"/>
<path fill-rule="evenodd" clip-rule="evenodd" d="M47.8817 74.69H243.969V313.174H47.8817V74.69ZM47.0264 73.6499H244.823V314.214H47.0264V73.6499Z" fill="#FED4A0"/>
<path fill-rule="evenodd" clip-rule="evenodd" d="M47.3114 73.9964H244.538V313.867H47.3114V73.9964ZM46.4561 72.9566H245.393V314.907H46.4561V72.9566Z" fill="#FED39F"/>
<path fill-rule="evenodd" clip-rule="evenodd" d="M46.7416 73.3033H245.109V314.56H46.7416V73.3033ZM45.8867 72.2636H245.964V315.6H45.8867V72.2636Z" fill="#FED39F"/>
<path fill-rule="evenodd" clip-rule="evenodd" d="M46.1713 72.6102H245.679V315.254H46.1713V72.6102ZM45.3164 71.5701H246.533V316.293H45.3164V71.5701Z" fill="#FED39E"/>
<path fill-rule="evenodd" clip-rule="evenodd" d="M45.601 71.9171H246.248V315.947H45.601V71.9171ZM44.7461 70.8769H247.103V316.987H44.7461V70.8769Z" fill="#FED39D"/>
<path fill-rule="evenodd" clip-rule="evenodd" d="M45.0317 71.2236H246.819V316.64H45.0317V71.2236ZM44.1768 70.1839H247.674V317.68H44.1768V70.1839Z" fill="#FED29D"/>
<path fill-rule="evenodd" clip-rule="evenodd" d="M44.4618 70.5301H247.389V317.333H44.4618V70.5301ZM43.6064 69.4904H248.244V318.373H43.6064V69.4904Z" fill="#FED29C"/>
<path fill-rule="evenodd" clip-rule="evenodd" d="M43.8911 69.8371H247.958V318.027H43.8911V69.8371ZM43.0361 68.7971H248.814V319.066H43.0361V68.7971Z" fill="#FED29C"/>
<path fill-rule="evenodd" clip-rule="evenodd" d="M43.3217 69.1435H248.529V318.72H43.3217V69.1435ZM42.4668 68.1038H249.384V319.76H42.4668V68.1038Z" fill="#FED19C"/>
<path fill-rule="evenodd" clip-rule="evenodd" d="M42.7514 68.4505H249.099V319.413H42.7514V68.4505ZM41.8965 67.4107H249.954V320.453H41.8965V67.4107Z" fill="#FED19B"/>
<path fill-rule="evenodd" clip-rule="evenodd" d="M42.1811 67.7569H249.669V320.106H42.1811V67.7569ZM41.3262 66.7168H250.524V321.146H41.3262V66.7168Z" fill="#FED19B"/>
<path fill-rule="evenodd" clip-rule="evenodd" d="M41.6118 67.0642H250.239V320.8H41.6118V67.0642ZM40.7568 66.024H251.094V321.839H40.7568V66.024Z" fill="#FED19A"/>
<path fill-rule="evenodd" clip-rule="evenodd" d="M41.0418 66.3703H250.809V321.493H41.0418V66.3703ZM40.1865 65.3306H251.664V322.533H40.1865V65.3306Z" fill="#FED099"/>
<path fill-rule="evenodd" clip-rule="evenodd" d="M40.4712 65.6773H251.379V322.186H40.4712V65.6773ZM39.6162 64.6375H252.234V323.226H39.6162V64.6375Z" fill="#FED099"/>
<path fill-rule="evenodd" clip-rule="evenodd" d="M39.9008 64.9844H251.949V322.88H39.9008V64.9844ZM39.0459 63.9442H252.803V323.919H39.0459V63.9442Z" fill="#FED099"/>
<path fill-rule="evenodd" clip-rule="evenodd" d="M39.3315 64.2911H252.519V323.573H39.3315V64.2911ZM38.4766 63.2509H253.374V324.613H38.4766V63.2509Z" fill="#FED098"/>
<path fill-rule="evenodd" clip-rule="evenodd" d="M38.7612 63.5976H253.089V324.266H38.7612V63.5976ZM37.9062 62.5579H253.944V325.306H37.9062V62.5579Z" fill="#FED098"/>
<path fill-rule="evenodd" clip-rule="evenodd" d="M38.1913 62.9042H253.659V324.959H38.1913V62.9042ZM37.3359 61.8644H254.514V325.999H37.3359V61.8644Z" fill="#FECF97"/>
<path fill-rule="evenodd" clip-rule="evenodd" d="M37.6218 62.2113H254.229V325.653H37.6218V62.2113ZM36.7666 61.1712H255.084V326.692H36.7666V61.1712Z" fill="#FECF97"/>
<path fill-rule="evenodd" clip-rule="evenodd" d="M37.0512 61.5175H254.799V326.346H37.0512V61.5175ZM36.1963 60.4777H255.654V327.386H36.1963V60.4777Z" fill="#FECF96"/>
<path fill-rule="evenodd" clip-rule="evenodd" d="M36.4809 60.8245H255.369V327.039H36.4809V60.8245ZM35.626 59.7847H256.224V328.079H35.626V59.7847Z" fill="#FECF95"/>
<path fill-rule="evenodd" clip-rule="evenodd" d="M35.9116 60.1312H255.939V327.732H35.9116V60.1312ZM35.0566 59.0915H256.794V328.772H35.0566V59.0915Z" fill="#FECF95"/>
<path fill-rule="evenodd" clip-rule="evenodd" d="M35.3413 59.4381H256.509V328.426H35.3413V59.4381ZM34.4863 58.398H257.364V329.465H34.4863V58.398Z" fill="#FECF95"/>
<path fill-rule="evenodd" clip-rule="evenodd" d="M34.7712 58.7443H257.079V329.119H34.7712V58.7443ZM33.916 57.7046H257.934V330.159H33.916V57.7046Z" fill="#FECE95"/>
<path fill-rule="evenodd" clip-rule="evenodd" d="M34.2006 58.0515H257.649V329.812H34.2006V58.0515ZM33.3457 57.0118H258.504V330.852H33.3457V57.0118Z" fill="#FECE94"/>
<path fill-rule="evenodd" clip-rule="evenodd" d="M33.6313 57.358H258.22V330.505H33.6313V57.358ZM32.7764 56.3179H259.074V331.545H32.7764V56.3179Z" fill="#FECE93"/>
<path fill-rule="evenodd" clip-rule="evenodd" d="M33.061 56.6651H258.789V331.199H33.061V56.6651ZM32.2061 55.6249H259.644V332.239H32.2061V55.6249Z" fill="#FECD93"/>
<path fill-rule="evenodd" clip-rule="evenodd" d="M32.4907 55.9713H259.359V331.892H32.4907V55.9713ZM31.6357 54.9316H260.214V332.932H31.6357V54.9316Z" fill="#FECD92"/>
<path fill-rule="evenodd" clip-rule="evenodd" d="M31.9208 55.2783H259.929V332.585H31.9208V55.2783ZM31.0654 54.2386H260.784V333.625H31.0654V54.2386Z" fill="#FECD92"/>
<path fill-rule="evenodd" clip-rule="evenodd" d="M31.3514 54.5853H260.499V333.279H31.3514V54.5853ZM30.4961 53.5452H261.354V334.318H30.4961V53.5452Z" fill="#FECD92"/>
<path fill-rule="evenodd" clip-rule="evenodd" d="M30.7807 53.8919H261.069V333.972H30.7807V53.8919ZM29.9258 52.8517H261.924V335.012H29.9258V52.8517Z" fill="#FECC91"/>
<path fill-rule="evenodd" clip-rule="evenodd" d="M30.2114 53.1987H261.64V334.665H30.2114V53.1987ZM29.3564 52.1589H262.495V335.705H29.3564V52.1589Z" fill="#FECC91"/>
<path fill-rule="evenodd" clip-rule="evenodd" d="M29.6411 52.5052H262.209V335.358H29.6411V52.5052ZM28.7861 51.4654H263.064V336.398H28.7861V51.4654Z" fill="#FECC90"/>
<path fill-rule="evenodd" clip-rule="evenodd" d="M29.0708 51.8121H262.779V336.052H29.0708V51.8121ZM28.2158 50.772H263.634V337.091H28.2158V50.772Z" fill="#FECB8F"/>
<path fill-rule="evenodd" clip-rule="evenodd" d="M28.5008 51.1185H263.349V336.745H28.5008V51.1185ZM27.6455 50.0788H264.204V337.785H27.6455V50.0788Z" fill="#FECB8F"/>
<path fill-rule="evenodd" clip-rule="evenodd" d="M27.9315 50.4255H263.92V337.438H27.9315V50.4255ZM27.0762 49.3857H264.775V338.478H27.0762V49.3857Z" fill="#FECB8E"/>
<path fill-rule="evenodd" clip-rule="evenodd" d="M27.3608 49.732H264.49V338.131H27.3608V49.732ZM26.5059 48.6922H265.345V339.171H26.5059V48.6922Z" fill="#FECA8C"/>
<path fill-rule="evenodd" clip-rule="evenodd" d="M26.7905 49.0391H265.059V338.824H26.7905V49.0391ZM25.9355 47.999H265.914V339.864H25.9355V47.999Z" fill="#FDC98A"/>
<path fill-rule="evenodd" clip-rule="evenodd" d="M26.2211 48.3453H265.63V339.517H26.2211V48.3453ZM25.3662 47.3056H266.485V340.558H25.3662V47.3056Z" fill="#FDC888"/>
<path fill-rule="evenodd" clip-rule="evenodd" d="M25.6508 47.6523H266.199V340.211H25.6508V47.6523ZM24.7959 46.6125H267.054V341.251H24.7959V46.6125Z" fill="#FDC786"/>
<path fill-rule="evenodd" clip-rule="evenodd" d="M25.0809 46.9594H266.769V340.904H25.0809V46.9594ZM24.2256 45.9193H267.624V341.944H24.2256V45.9193Z" fill="#FDC684"/>
<path fill-rule="evenodd" clip-rule="evenodd" d="M24.5102 46.2661H267.339V341.598H24.5102V46.2661ZM23.6553 45.226H268.194V342.638H23.6553V45.226Z" fill="#FDC583"/>
<path fill-rule="evenodd" clip-rule="evenodd" d="M23.9409 45.5727H267.91V342.291H23.9409V45.5727ZM23.0859 44.533H268.765V343.331H23.0859V44.533Z" fill="#FDC481"/>
<path fill-rule="evenodd" clip-rule="evenodd" d="M23.3706 44.8791H268.479V342.984H23.3706V44.8791ZM22.5156 43.8394H269.334V344.024H22.5156V43.8394Z" fill="#FDC37F"/>
<path fill-rule="evenodd" clip-rule="evenodd" d="M22.8002 44.1864H269.049V343.678H22.8002V44.1864ZM21.9453 43.1462H269.904V344.717H21.9453V43.1462Z" fill="#FDC37D"/>
<path fill-rule="evenodd" clip-rule="evenodd" d="M22.2303 43.4925H269.619V344.371H22.2303V43.4925ZM21.375 42.4528H270.474V345.411H21.375V42.4528Z" fill="#FDC17B"/>
<path fill-rule="evenodd" clip-rule="evenodd" d="M21.661 42.7995H270.19V345.064H21.661V42.7995ZM20.8057 41.7598H271.045V346.104H20.8057V41.7598Z" fill="#FDC079"/>
<path fill-rule="evenodd" clip-rule="evenodd" d="M21.0903 42.1062H270.759V345.757H21.0903V42.1062ZM20.2354 41.0665H271.614V346.797H20.2354V41.0665Z" fill="#FDBF77"/>
<path fill-rule="evenodd" clip-rule="evenodd" d="M20.521 41.4132H271.33V346.451H20.521V41.4132ZM19.666 40.373H272.185V347.49H19.666V40.373Z" fill="#FDBF75"/>
<path fill-rule="evenodd" clip-rule="evenodd" d="M19.9506 40.7193H271.9V347.143H19.9506V40.7193ZM19.0957 39.6796H272.755V348.184H19.0957V39.6796Z" fill="#FDBE73"/>
<path fill-rule="evenodd" clip-rule="evenodd" d="M19.3803 40.0264H272.469V347.837H19.3803V40.0264ZM18.5254 38.9866H273.324V348.877H18.5254V38.9866Z" fill="#FCBD71"/>
<path fill-rule="evenodd" clip-rule="evenodd" d="M18.8104 39.3335H273.039V348.531H18.8104V39.3335ZM17.9551 38.2934H273.894V349.57H17.9551V38.2934Z" fill="#FCBC6F"/>
<path fill-rule="evenodd" clip-rule="evenodd" d="M18.2407 38.6401H273.61V349.224H18.2407V38.6401ZM17.3857 37.6H274.465V350.264H17.3857V37.6Z" fill="#FCBB6E"/>
<path fill-rule="evenodd" clip-rule="evenodd" d="M17.6704 37.9468H274.18V349.917H17.6704V37.9468ZM16.8154 36.9069H275.035V350.957H16.8154V36.9069Z" fill="#FCBA6C"/>
<path fill-rule="evenodd" clip-rule="evenodd" d="M17.1001 37.2534H274.749V350.61H17.1001V37.2534ZM16.2451 36.2136H275.604V351.65H16.2451V36.2136Z" fill="#FCB969"/>
<path fill-rule="evenodd" clip-rule="evenodd" d="M16.5307 36.5604H275.32V351.304H16.5307V36.5604ZM15.6758 35.5202H276.175V352.343H15.6758V35.5202Z" fill="#FCB868"/>
<path fill-rule="evenodd" clip-rule="evenodd" d="M15.9608 35.8669H275.89V351.996H15.9608V35.8669ZM15.1055 34.8268H276.745V353.037H15.1055V34.8268Z" fill="#FCB765"/>
<path fill-rule="evenodd" clip-rule="evenodd" d="M15.3904 35.1737H276.459V352.69H15.3904V35.1737ZM14.5352 34.134H277.315V353.73H14.5352V34.134Z" fill="#FCB663"/>
<path fill-rule="evenodd" clip-rule="evenodd" d="M14.8198 34.4802H277.029V353.383H14.8198V34.4802ZM13.9648 33.4404H277.884V354.423H13.9648V33.4404Z" fill="#FCB561"/>
<path fill-rule="evenodd" clip-rule="evenodd" d="M14.2504 33.7872H277.6V354.076H14.2504V33.7872ZM13.3955 32.747H278.455V355.116H13.3955V32.747Z" fill="#FCB45F"/>
<path fill-rule="evenodd" clip-rule="evenodd" d="M13.6801 33.0936H278.169V354.769H13.6801V33.0936ZM12.8252 32.0539H279.024V355.81H12.8252V32.0539Z" fill="#FBB45D"/>
<path fill-rule="evenodd" clip-rule="evenodd" d="M13.1108 32.4005H278.74V355.463H13.1108V32.4005ZM12.2559 31.3608H279.595V356.503H12.2559V31.3608Z" fill="#FBB25B"/>
<path fill-rule="evenodd" clip-rule="evenodd" d="M12.5407 31.7075H279.31V356.157H12.5407V31.7075ZM11.6855 30.6678H280.165V357.196H11.6855V30.6678Z" fill="#FBB158"/>
<path fill-rule="evenodd" clip-rule="evenodd" d="M11.9706 31.014H279.88V356.849H11.9706V31.014ZM11.1152 29.974H280.735V357.889H11.1152V29.974Z" fill="#FBB057"/>
<path fill-rule="evenodd" clip-rule="evenodd" d="M11.3999 30.3204H280.449V357.542H11.3999V30.3204ZM10.5449 29.2807H281.305V358.583H10.5449V29.2807Z" fill="#FBB054"/>
<path fill-rule="evenodd" clip-rule="evenodd" d="M10.8305 29.6274H281.02V358.236H10.8305V29.6274ZM9.97559 28.5876H281.875V359.276H9.97559V28.5876Z" fill="#FBAF52"/>
<path fill-rule="evenodd" clip-rule="evenodd" d="M10.2602 28.9343H281.59V358.93H10.2602V28.9343ZM9.40527 27.8942H282.445V359.969H9.40527V27.8942Z" fill="#FBAD50"/>
<path fill-rule="evenodd" clip-rule="evenodd" d="M9.6899 28.2411H282.159V359.622H9.6899V28.2411ZM8.83496 27.201H283.014V360.663H8.83496V27.201Z" fill="#FBAD4E"/>
<path fill-rule="evenodd" clip-rule="evenodd" d="M9.11998 27.5477H282.729V360.316H9.11998V27.5477ZM8.26465 26.508H283.584V361.356H8.26465V26.508Z" fill="#FBAC4C"/>
<path fill-rule="evenodd" clip-rule="evenodd" d="M8.55025 26.8542H283.3V361.009H8.55025V26.8542ZM7.69531 25.8144H284.155V362.049H7.69531V25.8144Z" fill="#FAAB4A"/>
<path fill-rule="evenodd" clip-rule="evenodd" d="M7.9798 26.1614H283.87V361.702H7.9798V26.1614ZM7.125 25.1213H284.725V362.742H7.125V25.1213Z" fill="#FAAA48"/>
<path fill-rule="evenodd" clip-rule="evenodd" d="M7.41059 25.4675H284.44V362.395H7.41059V25.4675ZM6.55566 24.4278H285.295V363.436H6.55566V24.4278Z" fill="#FAA947"/>
<path fill-rule="evenodd" clip-rule="evenodd" d="M6.84029 24.7745H285.01V363.089H6.84029V24.7745ZM5.98535 23.7348H285.865V364.129H5.98535V23.7348Z" fill="#FAA845"/>
<path fill-rule="evenodd" clip-rule="evenodd" d="M6.27037 24.0816H285.58V363.782H6.27037V24.0816ZM5.41504 23.0417H286.435V364.822H5.41504V23.0417Z" fill="#FAA843"/>
<path fill-rule="evenodd" clip-rule="evenodd" d="M5.70006 23.3882H286.15V364.475H5.70006V23.3882ZM4.84473 22.3481H287.005V365.515H4.84473V22.3481Z" fill="#FAA742"/>
<path fill-rule="evenodd" clip-rule="evenodd" d="M5.13033 22.6949H286.72V365.169H5.13033V22.6949ZM4.27539 21.6551H287.576V366.209H4.27539V21.6551Z" fill="#FAA640"/>
<path fill-rule="evenodd" clip-rule="evenodd" d="M4.56001 22.0015H287.29V365.862H4.56001V22.0015ZM3.70508 20.9616H288.145V366.902H3.70508V20.9616Z" fill="#FAA53D"/>
<path fill-rule="evenodd" clip-rule="evenodd" d="M3.9897 21.3086H287.86V366.555H3.9897V21.3086ZM3.13477 20.2684H288.715V367.595H3.13477V20.2684Z" fill="#FAA43C"/>
<path fill-rule="evenodd" clip-rule="evenodd" d="M3.42023 20.6151H288.43V367.248H3.42023V20.6151ZM2.56543 19.5749H289.285V368.288H2.56543V19.5749Z" fill="#F9A33A"/>
<path fill-rule="evenodd" clip-rule="evenodd" d="M2.85045 19.9217H289V367.942H2.85045V19.9217ZM1.99512 18.8819H289.855V368.982H1.99512V18.8819Z" fill="#F9A239"/>
<path fill-rule="evenodd" clip-rule="evenodd" d="M2.27974 19.2285H289.57V368.635H2.27974V19.2285ZM1.4248 18.1887H290.425V369.675H1.4248V18.1887Z" fill="#F9A237"/>
<path fill-rule="evenodd" clip-rule="evenodd" d="M1.70942 18.5354H290.14V369.328H1.70942V18.5354ZM0.854492 17.4952H290.995V370.368H0.854492V17.4952Z" fill="#F9A035"/>
<path fill-rule="evenodd" clip-rule="evenodd" d="M1.14009 17.8419H290.71V370.021H1.14009V17.8419ZM0.285156 16.8017H291.565V371.062H0.285156V16.8017Z" fill="#F9A034"/>
<path fill-rule="evenodd" clip-rule="evenodd" d="M0.569865 17.1486H291.28V370.715H0.569865V17.1486ZM0 16.4554H291.85V371.408H0V16.4554Z" fill="#F99F33"/>
</g>
<path fill-rule="evenodd" clip-rule="evenodd" d="M128.436 117.682C129.02 121.278 129.604 124.868 128.966 128.132C127.639 134.881 121.076 140.212 114.91 144.583C111.783 146.798 108.76 148.768 105.754 150.7C104.035 145.669 102.338 140.627 102.147 134.734C101.929 127.979 103.686 120.111 108.046 116.935C112.788 113.475 120.612 115.576 128.436 117.682ZM168.754 128.088C164.471 128.573 160.024 128.824 156.144 127.34C154.578 126.735 153.1 125.851 151.626 124.967C149.105 121.114 146.585 117.263 145.079 112.968C141.243 102.055 143.933 88.272 151.261 78.7994C157.438 70.822 166.905 65.9003 176.541 64.0782C186.314 62.2334 196.255 63.5763 206.197 64.9236C209.111 74.7946 212.03 84.6706 209.858 94.3612C208.15 101.995 203.278 109.514 196.768 113.727C191.454 117.17 185.042 118.408 178.609 119.603C176.503 115.855 174.767 112.046 174.827 107.937C174.887 103.708 176.852 99.1627 179.924 96.2711C183.443 92.9647 188.414 91.8298 193.385 90.6947L176.966 76.0332C173.299 77.1028 169.633 78.1663 166.294 80.267C160.406 83.9834 155.555 90.9291 155.664 97.5315C155.752 102.731 158.911 107.719 162.496 111.958C167.423 117.786 173.147 122.206 178.92 126.538C175.586 127.139 172.225 127.69 168.754 128.088ZM147.283 131.002L159.216 142.929L159.386 187.918C156.221 185.037 153.056 182.151 149.608 179.657C145.99 177.038 142.061 174.839 138.116 172.7C134.657 170.823 131.187 168.984 127.765 167.058C126.565 166.382 125.37 165.689 124.18 164.996C126.483 163.462 128.796 161.858 131.132 160.183C137.418 155.692 143.9 150.7 146.181 144.032C147.534 140.081 147.409 135.542 147.283 131.002ZM85.5594 136.027C88.8767 143.142 94.8627 148.632 100.848 154.121C95.7028 156.959 90.5575 159.795 85.3138 162.437C79.6115 165.317 73.7895 167.964 67.9676 170.61C71.3454 174.141 74.7227 177.666 78.4822 180.743C80.2284 182.178 82.0618 183.515 83.8952 184.852C91.638 181.845 99.3807 178.844 106.66 175.232C110.812 173.175 114.817 170.921 118.784 168.466C122.036 170.387 125.261 172.34 128.36 174.479C132.338 177.224 136.108 180.279 139.873 183.335C132.409 185.075 124.95 186.811 117.474 188.862C103.113 192.802 88.7134 197.893 77.0582 207.103C69.6866 212.925 63.4114 220.401 59.5864 229.044C54.5666 240.404 53.7807 253.784 56.7163 265.788C61.8836 286.877 78.537 303.721 97.1432 316.375C121.747 333.11 149.771 342.517 179.804 338.784C200.457 336.215 222.064 327.435 231.957 311.421C237.986 301.659 239.667 289.213 241.342 276.767C237.986 274.021 234.636 271.282 231.171 268.685C228.65 266.792 226.064 264.969 223.483 263.152C222.746 270.682 222.015 278.218 219.527 285.284C215.375 297.086 206.339 307.601 195.371 314.023C185.62 319.731 174.342 322.203 163.167 322.89C147.42 323.85 131.879 321.259 116.503 316.648C106.299 313.587 96.1667 309.642 88.5656 302.69C81.9144 296.606 77.2051 288.23 74.5972 279.211C71.1326 267.217 71.3779 254.089 76.2398 242.92C79.8787 234.566 86.0942 227.303 93.3732 221.836C104.614 213.4 118.385 209.248 131.972 205.472C141.166 202.924 150.279 200.544 159.386 198.171L159.293 214.027L176.775 226.343L177.397 144.85L187.623 144.747V212.953L205.558 227.183V144.07C208.521 143.388 211.555 142.908 214.987 143.661C216.155 143.912 217.372 144.31 218.174 143.699C218.654 143.328 218.987 142.597 218.954 141.947C218.932 141.555 218.774 141.189 218.616 140.829L209.296 132.813C212.919 130.516 216.548 128.213 219.451 125.24C227.908 116.575 230.244 102.164 228.11 89.3688C226.244 78.1776 220.956 68.2198 212.99 60.8584C199.769 48.6471 179.165 43.578 161.028 47.9592C148.647 50.9496 137.412 58.3488 131.274 69.2014C125.435 79.5142 124.197 92.948 128.284 103.812C130.074 108.592 132.9 112.87 135.721 117.148C129.419 111.277 123.117 105.4 114.921 101.471C109.377 98.8083 102.966 97.0406 97.5087 98.7047C91.8671 100.424 87.2507 105.82 84.8118 111.806C81.5708 119.756 82.1707 128.743 85.5594 136.027Z" fill="#F37236" stroke="#EE3338" stroke-width="0.999733" stroke-miterlimit="2.61313"/>
</svg>
